<?xml version="1.0" encoding="UTF-8"?>
<svg width="1920px" height="498px" viewBox="0 0 1920 498" version="1.1" xmlns="http://www.w3.org/2000/svg" xmlns:xlink="http://www.w3.org/1999/xlink">
    <!-- Generator: Sketch 60.1 (88133) - https://sketch.com -->
    <title>Page 1</title>
    <desc>Created with Sketch.</desc>
    <g id="Page-1" stroke="none" stroke-width="1" fill="none" fill-rule="evenodd">
        <g id="Home-1920" transform="translate(0.000000, -77.000000)">
            <rect id="Rectangle" stroke="#979797" fill="#16253F" x="0" y="0" width="1920" height="651"></rect>
            <path d="M2027.686,374.143088 C1743.2777,374.076038 1314.96883,373.564019 1302.54079,373.716406 C1259.79763,374.417384 1171.52982,379.952068 1149.443,382.082433 C1097.76547,387.10205 1074.93284,396.830414 1034.32623,387.364155 C1010.10286,381.64356 990.128133,373.375059 966.610835,374.207091 C936.378239,375.468852 914.404512,387.991988 879.153018,386.1603 C849.730415,384.554145 831.164771,378.361151 800.751837,385.544658 C777.448499,391.353638 758.546632,399.515467 737.96976,401.712883 C710.439178,404.641755 682.572372,396.260488 651.798762,390.384459 C598.00302,380.11055 574.583532,385.453226 539.622413,390.475891 C499.587377,395.888665 485.004452,392.984175 441.292354,384.179274 C367.216229,370.135319 360.259461,373.332391 121.537798,372.923995 L-28.6441067,372.923995 M2027.686,373.984606 C1857.1749,373.929747 1582.17473,374.054704 1410.68552,376.114972 C1307.44965,376.940907 1300.00995,386.425453 1224.52474,341.651204 C1192.81582,322.938122 1180.95019,317.001138 1165.21799,305.236887 C1131.78516,279.855365 1120.16711,254.900525 1100.02733,227.349017 C1092.37978,216.953199 1082.397,204.369108 1071.18242,200.961742 C1057.34224,197.49647 1048.52402,210.464575 1041.67423,223.31077 C1020.56858,263.342746 1000.00087,344.552646 978.889102,365.466192 C974.833025,369.245381 971.238491,371.043543 965.975067,369.285001 C942.338563,359.248816 920.811096,277.511658 897.266289,254.339742 C869.692915,228.43401 845.527623,305.983582 818.262962,287.812996 C796.445121,271.867256 776.100549,188.167358 754.239916,133.527597 C748.875624,120.111475 739.751744,98.2653232 728.579958,91.7401263 C719.254344,86.933851 711.298076,92.7854988 704.377987,100.733987 C696.819074,109.593748 690.060984,121.845635 684.745598,132.153069 C660.403024,179.359409 624.369047,279.242771 584.392086,264.714226 C561.464707,255.467404 540.683045,208.227538 517.969627,187.432855 C509.689362,179.99029 501.818678,176.247674 492.013181,181.331293 C452.506933,203.433454 425.997247,335.02848 355.433127,370.555906 C337.649966,379.308996 325.732375,378.266671 313.108715,378.379437 C260.722055,378.620208 186.792645,378.626304 121.537798,378.647638 L-23.6730358,378.647638 M2027.686,375.136649 C1746.19367,375.136649 1464.61881,374.661203 1458.59429,374.661203 C1305.45371,374.051656 1295.86217,373.490873 1225.09938,379.220612 C1186.14943,382.375016 1164.93679,383.484391 1136.60538,387.812172 C1110.62754,392.03633 1092.22084,397.4552 1071.10906,398.268944 C1047.79044,399.05526 1034.62883,393.618104 1010.27708,384.691293 C994.899448,379.281566 981.826472,374.621582 965.357639,375.343895 C949.017182,376.242976 933.764866,381.933094 916.531889,386.727179 C899.442571,391.48469 888.234106,392.737309 871.181467,390.902573 C858.184905,389.567666 845.711017,386.916138 831.507107,386.142014 C817.263462,385.523324 806.146694,386.824706 785.181637,395.117588 C773.936493,399.39051 759.142664,406.430774 744.715624,410.225202 C708.051992,419.761559 677.403701,403.099602 634.892839,394.236793 C600.970955,387.166052 581.124606,388.333334 555.336272,393.08475 C525.53771,398.829727 508.741823,403.349516 481.305994,399.545945 C443.936293,394.105741 417.435777,379.354712 351.7255,374.923308 C330.824631,373.530494 154.91638,373.826124 -63.3139963,373.725549 M2027.686,375.505425 C1244.9549,375.505425 1305.00439,376.428888 1225.83601,372.838658 C1184.22073,370.955159 1170.15436,370.757057 1136.88047,368.111624 C1110.44414,365.786204 1093.7155,362.957907 1071.01737,362.378838 C1045.5622,361.952155 1033.5254,365.225421 1009.85222,369.736066 C967.533921,378.425153 955.756933,374.636821 915.578237,368.580975 C876.671078,362.784186 863.035691,367.965333 830.079686,368.852223 C793.483298,369.641586 775.828514,360.373429 742.536285,355.682968 C706.355592,350.587158 676.868801,359.075095 632.2489,364.335483 C556.925691,373.210482 534.933625,357.005684 477.662555,361.354799 C458.546727,362.808568 438.241891,366.3287 416.589105,369.156997 C354.005706,377.294444 191.35571,375.276845 -4.57999853,375.21589 L-0.999529878,375.21589 M2027.686,375.974776 C1258.74006,375.648668 1317.3713,378.507442 1225.79016,371.622613 C1192.06084,369.257572 1161.80074,367.3375 1136.61761,363.671077 C1111.94798,360.053417 1091.68288,354.716837 1070.0087,354.082908 C1045.44911,353.485552 1031.93598,359.261007 1009.17366,366.602996 C966.549703,380.76886 957.19658,375.31037 914.325041,364.50006 C894.824085,359.693785 885.128625,359.248816 868.097382,360.794017 C828.994601,364.646351 818.892617,370.107889 781.525972,356.719197 C770.873804,353.064965 754.942928,346.286806 740.280532,342.827629 C702.880265,334.31531 673.448492,349.200439 629.381832,357.587801 C552.634258,372.067582 531.51026,345.064665 473.805156,352.604757 C436.594397,357.499417 410.971118,370.903348 343.246557,375.060456 C323.109833,376.19726 243.520515,376.029635 29.7099479,375.950394 L-27.2423124,375.950394 M2027.686,376.559941 C1234.03986,376.328313 1324.19052,375.886392 1226.49012,376.858618 C1047.6315,378.641542 1092.88106,381.143731 1008.77019,377.498642 C961.466617,375.447518 960.564927,376.163735 913.456974,377.763795 C873.944612,379.092607 865.798836,377.977137 826.524888,377.641886 C794.715099,377.507786 785.994687,378.836597 738.736961,380.842006 C701.082998,382.051956 667.41481,379.732631 627.184153,378.647638 C546.392729,376.489843 529.239223,380.503707 470.941144,379.308996 C348.027043,376.77633 368.046299,375.926012 -1.08419067,375.770578 M2027.686,377.443783 C1447.33692,377.17863 1353.61618,374.630725 1339.59567,374.685585 C1294.78015,375.033026 1274.23078,380.695715 1227.15034,398.677341 C1191.24779,412.32509 1164.246,420.12424 1137.02107,440.583673 C1112.63571,458.909693 1092.55706,487.387712 1069.8253,491.054135 C1057.03047,492.654195 1048.51485,485.772413 1040.26821,475.80023 C1018.34644,448.88265 997.427237,395.367502 975.429057,382.097672 C970.370424,379.217564 966.516081,378.894504 961.91899,380.156266 C937.836226,387.934081 916.265967,441.696095 892.418559,456.142351 C869.497294,469.323797 848.740084,437.34698 825.439803,432.302982 C810.004093,429.444208 800.779346,440.992069 791.780785,454.566673 C773.46578,482.788683 755.966881,527.569027 738.137872,549.567566 C701.397825,594.808118 669.826449,514.80512 625.668092,471.55169 C610.718377,456.91038 592.381976,443.765506 572.288044,448.97713 C549.375948,455.581568 529.003867,486.403294 506.214034,499.788939 C493.981616,506.704245 483.772651,507.396081 469.263084,497.497043 C431.875043,471.341397 402.149839,399.210694 335.461458,378.449535 C315.829068,372.451596 304.027627,373.530494 276.255575,373.432966 C242.202259,373.353725 19.8615571,373.274484 -63.3139963,373.219625 M2027.686,377.017101 C1884.2256,376.849475 1566.90713,377.343208 1419.93472,379.056034 C1312.83534,379.885018 1307.04313,388.83621 1228.0612,345.561446 C1196.70684,328.228987 1184.13209,322.624206 1166.94801,310.573468 C1133.04753,286.535996 1120.9496,262.458904 1099.90813,235.769904 C1091.72261,225.532568 1081.3058,213.527547 1069.69998,210.86078 C1055.75894,208.312875 1046.9346,220.683624 1039.82501,233.145805 C1017.33166,273.281404 996.910675,350.212287 974.799403,369.345956 C970.397933,372.927043 966.598609,374.246711 961.228204,372.140727 C937.02929,361.03174 914.682661,282.595277 890.59684,261.712209 C862.464112,238.250759 836.972266,312.868411 809.010706,293.874938 C783.121505,274.729078 759.15489,170.588033 733.128143,124.628216 C690.886259,50.5865844 658.135045,203.564507 605.503858,258.22865 C594.607163,269.395545 581.962107,277.292221 567.593142,271.861161 C544.268409,262.285183 522.866262,217.181779 499.345907,197.557424 C487.813445,188.210027 480.147552,188.658043 472.429697,192.656669 C429.380877,216.825194 400.040801,358.191252 317.436827,378.885361 C305.96244,381.64356 190.959623,381.378407 -5.31842239,381.418027 M2027.686,377.82475 C1800.8208,377.772938 1659.25241,377.785129 1444.56767,378.611065 C1323.60977,379.080416 1308.86485,383.274097 1240.49841,365.646008 C1186.6507,351.961686 1169.8701,347.664382 1150.87959,339.615318 C1117.84717,325.528695 1099.70334,305.163742 1075.74895,299.193232 C1056.93266,294.838022 1044.67274,302.628028 1031.33995,316.598837 C1015.82171,332.651248 1001.05234,354.634548 985.170366,367.303975 C977.165193,373.506112 969.590997,377.285301 959.727425,375.100076 C935.513228,368.974133 913.218561,331.547968 889.151079,322.151807 C868.283833,314.303894 849.20774,331.813121 827.988988,337.750106 C810.639861,342.352183 800.158861,336.217096 787.495465,323.117938 C781.336464,316.745128 775.480064,309.189797 770.436713,302.664601 C741.805763,265.195768 725.275799,237.77836 694.780338,250.703797 C682.819955,255.878848 671.470887,265.890651 661.818219,274.75346 C637.448136,297.117726 602.532866,334.559129 564.588528,327.02818 C536.984588,321.091196 511.862587,291.643997 484.246421,288.254918 C453.772355,285.301664 426.862258,320.012298 394.364739,344.513026 C369.172437,363.259633 342.864485,374.98731 312.39959,378.498299 C301.243086,379.689963 315.364469,379.568053 121.537798,379.568053 L-2.95971916,379.568053" id="Stroke-1" stroke="#DB3552" stroke-width="0.5" stroke-linecap="round" stroke-linejoin="round"></path>
            <path d="M2028.686,379.069242 C1878.74636,379.020348 1528.38358,379.408438 1407.15532,380.811063 C1380.69484,381.015804 1359.84636,381.856156 1343.21529,381.730867 C1289.82947,381.11359 1268.96263,370.49459 1216.72674,347.835629 C1179.6417,331.746697 1155.67986,323.26372 1125.90112,292.546541 C1099.66084,265.037982 1075.07511,230.189325 1049.81654,251.64429 C1023.83622,274.446875 999.238253,356.492788 973.337446,373.238723 C968.223955,376.325108 964.31238,376.557351 959.431321,374.760525 C935.206466,364.535726 912.642273,301.909597 888.288969,285.735102 C856.785343,266.241978 829.245283,340.975296 797.310434,304.073123 C774.250795,276.631792 752.714193,207.631207 729.602562,175.398338 C689.278776,120.155088 657.246062,227.631598 608.600622,276.23759 C595.208293,289.512105 579.430484,299.889695 561.579142,294.022506 C533.763834,284.042173 508.034292,234.284134 480.359667,228.771421 C449.21692,223.765976 421.444429,284.552497 390.399548,323.474572 C369.187127,350.298626 342.05688,374.24409 308.29928,380.624658 C297.142574,382.672062 301.932061,382.467322 115.840159,382.467322 L-9.26845118,382.467322" id="Path" stroke="#DB3552" stroke-width="0.5" stroke-linecap="round" stroke-linejoin="round"></path>
            <path d="M2028.686,380.196842 C1284.60894,380.196842 1325.16515,374.766636 1242.62143,386.32072 C1186.02439,393.972512 1171.79714,395.897684 1151.9579,400.301131 C1118.91289,407.937644 1099.67307,418.846948 1076.07212,422.006674 C1042.97511,426.043422 1027.96799,409.486949 997.785557,392.029006 C971.465762,376.853767 957.498471,377.409927 930.01346,391.13976 C905.865063,403.063599 892.273944,413.288398 866.703434,409.899485 C852.121424,407.806243 839.609887,403.127772 825.844445,401.126204 C809.158318,398.76405 799.007795,401.324833 785.089437,408.976625 C779.440743,412.148574 773.168154,416.335058 768.082189,419.968437 C739.508421,440.039112 723.632746,454.725419 692.431892,447.794802 C655.377436,439.287378 611.873011,401.141484 560.007172,406.745871 C532.314196,409.905597 507.456272,425.725616 479.674606,427.540777 C430.524544,429.9121 397.840411,384.569731 304.075758,378.849222 C288.481447,377.959976 214.335837,378.372513 121.458093,378.164717 L-1.62504298,378.164717" id="Path" stroke="#DB3552" stroke-width="0.5" stroke-linecap="round" stroke-linejoin="round"></path>
            <path d="M2028.686,380.184619 C1853.04434,380.184619 1614.44435,380.184619 1410.59592,381.733923 C1380.19022,381.966166 1365.87123,382.638448 1345.9647,382.562052 C1292.79297,381.953943 1272.14939,373.04315 1218.09992,351.912102 C1180.73352,337.482485 1155.89394,329.387598 1126.28953,301.937099 C1099.88104,277.05044 1074.8702,245.654868 1049.40061,264.967698 C1022.7811,285.945954 998.59295,359.469164 972.089656,374.867479 C966.792667,377.749124 962.780168,377.804129 958.030616,376.242601 C933.414298,366.897881 910.663548,310.200057 886.157329,295.770439 C854.445737,278.147482 826.605963,345.543758 794.203194,312.339136 C771.192487,287.895572 749.010582,224.914967 725.868369,196.067955 C714.433356,182.078377 703.270534,177.506859 688.092153,187.05632 C660.912973,204.825957 638.382421,255.876611 603.517714,287.177452 C589.581006,299.48327 573.809314,308.473514 555.979381,303.244993 C527.839892,294.126404 501.942144,249.343252 473.983095,244.27669 C442.601801,239.784624 414.930234,293.884994 382.946453,329.861251 C360.134536,355.331573 333.591484,375.765892 299.87976,381.520015 C288.463097,383.365735 194.777532,383.124325 16.4292655,383.176274 L15.9119704,383.176274 L-6.34647055,383.176274" id="Path" stroke="#DB3552" stroke-width="0.5" stroke-linecap="round" stroke-linejoin="round"></path>
            <path d="M2028.686,381.483345 C1757.65267,381.321386 1799.61571,381.26027 1435.73521,379.879036 C1323.16808,379.454276 1313.47019,373.660427 1237.02779,398.999349 C1193.92706,413.285342 1166.29831,420.185401 1138.01508,439.091805 C1109.83583,457.995154 1085.99632,488.690942 1059.85391,483.489923 C1050.8686,481.393626 1044.63883,476.079542 1038.37236,469.307828 C1016.52687,445.133176 997.097438,402.684677 975.66176,387.723345 C969.211789,383.414628 963.725185,382.060897 956.535104,384.364991 C943.846185,388.970123 931.872911,403.955901 922.673522,415.283853 C895.185453,449.536624 883.82384,462.89059 857.886333,450.875076 C839.983001,442.343206 824.566072,427.812746 807.375325,430.902188 C777.052205,437.579171 751.912916,513.932077 722.92016,540.545279 C682.290543,576.588764 646.545044,485.069786 593.449766,453.655879 C573.105903,441.722873 557.765432,442.804636 542.614576,451.183715 C531.360004,457.588729 521.166665,466.808161 511.153766,474.979444 C477.4451,502.763027 461.480734,505.577445 425.88815,470.631001 C391.680979,436.717428 356.238252,384.093022 286.771853,378.155549 C282.337307,377.813296 169.849269,377.739957 14.9337554,377.590221 L-4.57999853,377.590221" id="Path" stroke="#DB3552" stroke-width="0.5" stroke-linecap="round" stroke-linejoin="round"></path>
            <path d="M2028.686,381.956999 C1931.04647,381.908105 1930.2452,381.883659 1920.74609,381.883659 C1262.06615,379.417606 1319.70302,374.598566 1237.85047,395.628771 C1192.80466,407.256194 1166.93138,412.267752 1138.30256,427.073236 C1110.07132,441.875664 1085.85564,466.01059 1059.68876,461.903558 C1046.88669,459.611687 1036.99918,450.737564 1027.56736,440.579993 C1010.23899,422.153354 993.029889,396.472179 975.037865,386.763815 C967.670402,382.925696 962.238847,382.537606 955.807227,384.126636 C935.472539,389.859368 916.474332,416.579524 896.369018,431.085537 C883.013389,440.653333 872.917915,442.196526 856.549853,436.289612 C838.857543,429.725694 823.058326,418.183834 805.77583,420.616272 C775.357902,425.725616 749.851617,485.870413 720.657012,506.668375 C679.941763,534.968394 644.11369,463.434527 590.581073,438.450082 C572.87653,430.401032 557.086488,428.802834 539.455345,436.509631 C515.548554,447.024734 493.440048,469.549238 469.300826,471.847221 C437.353745,474.084086 407.761561,436.408789 372.658306,411.888829 C344.485176,392.481268 316.354863,381.431396 282.407648,379.200642 C277.991452,378.928673 90.2838531,378.870613 -70.3139963,378.751435" id="Path" stroke="#DB3552" stroke-width="0.5" stroke-linecap="round" stroke-linejoin="round"></path>
            <path d="M2028.686,381.657527 C1761.42968,381.284716 1563.19935,382.815686 1435.41714,383.775216 C1322.14049,385.04644 1314.31734,393.135216 1235.59956,349.68746 C1201.46273,330.848283 1188.35176,324.660233 1171.93783,313.265052 C1135.93849,287.953633 1123.42083,263.176983 1101.81695,235.350618 C1093.56258,224.801901 1083.08481,212.401353 1071.36232,208.547955 C1056.50812,204.392029 1047.02125,216.422822 1039.14305,230.005976 C1016.30055,270.061763 994.678316,350.524757 972.092715,372.505324 C964.719135,379.335099 957.446479,380.331298 947.23479,369.076686 C925.649255,344.562837 905.917054,282.810675 884.603709,262.342742 C854.962591,235.032812 829.101542,312.13134 800.06597,295.776551 C772.782807,278.807541 747.701627,169.05444 720.418464,119.305568 C708.038435,97.1691537 695.664523,88.5272735 677.776481,107.253384 C653.447644,133.38071 634.030449,191.23058 603.982577,236.126798 C590.807388,255.534359 571.656266,279.039784 549.535527,272.454475 C520.175774,262.431361 494.681721,198.833479 465.921396,187.539141 C414.33998,169.427251 385.283,356.190261 289.787344,383.109045 C278.104609,386.22599 272.477323,385.850123 267.987728,385.911239 C235.282186,386.183208 93.795786,386.207655 55.5057747,386.232101 L-1.62504298,386.232101" id="Path" stroke="#DB3552" stroke-width="0.5" stroke-linecap="round" stroke-linejoin="round"></path>
            <path d="M2028.686,383.047929 C1882.60288,382.999036 1485.69878,381.908105 1456.98433,381.908105 C1330.31534,381.437508 1317.94755,377.577998 1245.21488,393.957233 C1195.75593,405.092669 1174.78817,409.257761 1152.40747,417.71018 C1119.10556,430.291022 1098.91461,449.588573 1074.00776,454.230375 C1055.22669,457.414547 1043.14332,450.398367 1029.0384,437.493608 C1013.31258,423.13733 996.926172,402.177409 980.799716,391.335333 C969.734759,383.897449 961.682235,383.10599 953.550196,385.138115 C935.224816,390.183286 919.113652,408.781052 900.240836,422.828691 C883.475193,435.180346 873.242096,436.607418 859.072957,433.117663 C844.414488,429.365107 832.031401,421.633863 817.03346,418.327458 C803.264959,415.537487 792.325393,417.462658 776.214229,432.543167 C770.271937,438.104773 764.259304,444.867319 758.916441,451.107319 C729.62397,485.329532 713.008185,509.708923 680.651291,497.018072 C642.890366,481.879502 597.691638,417.694901 543.94494,428.58587 C515.334473,434.865596 489.87712,461.76299 461.34311,463.517035 C429.992399,464.705752 400.332931,432.341483 367.765014,411.677977 C338.594876,393.006871 309.699985,383.640759 280.496206,381.00358 C270.541415,380.147949 256.917034,380.215177 97.6159073,380.096 L-6.74869499,380.096" id="Path" stroke="#DB3552" stroke-width="0.5" stroke-linecap="round" stroke-linejoin="round"></path>
            <path d="M2028.686,383.374902 C1695.18368,383.176274 729.938976,383.555196 716.45184,383.555196 C620.907251,384.462777 909.850038,383.014315 121.458093,382.620113 L-5.31842239,382.620113" id="Path" stroke="#DB3552" stroke-width="0.5" stroke-linecap="round" stroke-linejoin="round"></path>
            <path d="M2028.686,384.337488 C1623.71103,384.337488 1358.75149,381.471122 1352.53089,381.53835 C1298.00738,382.143404 1274.95386,392.022894 1220.60162,411.72687 C1182.89574,425.456703 1158.33141,432.506497 1126.38128,460.189239 C1099.61803,483.77106 1073.58265,514.234604 1047.08853,494.014193 C1019.93688,472.71202 994.124763,400.738114 966.755968,388.004481 C961.737285,385.874569 957.516821,385.789006 952.04245,387.967811 C927.083601,398.742659 903.724248,453.551981 878.664475,465.796682 C856.809809,475.673117 836.566871,449.350218 814.121951,441.56397 C801.815322,437.609729 793.444734,440.634998 784.315685,449.918602 C761.390612,473.653215 739.132249,534.598638 715.772895,561.499088 C703.830204,574.911115 692.208635,578.037227 676.709132,568.405258 C663.965164,560.185082 652.273254,545.767688 642.290938,533.223516 C616.246391,500.092234 577.766764,445.175958 538.19838,458.172392 C509.44723,468.28107 483.78803,511.670765 455.021588,514.494349 C423.676993,516.413409 394.739287,466.331452 360.012204,430.926634 C334.88209,405.667164 306.470412,386.461288 271.477257,381.440564 C261.247218,380.019604 80.6499103,380.193786 -67.4088778,380.02266" id="Path" stroke="#DB3552" stroke-width="0.5" stroke-linecap="round" stroke-linejoin="round"></path>
            <path d="M2027.686,384.651177 C1923.2694,384.599346 1631.6503,384.206042 1528.83484,383.456021 C1319.46383,382.690755 1324.5056,376.181422 1246.6851,400.871154 C1201.30305,415.545356 1175.87725,422.585192 1152.58121,435.402632 C1119.30246,453.512908 1098.15452,481.983237 1072.69816,488.196829 C1052.74192,492.578053 1040.20471,479.864273 1027.61862,463.327214 C1011.13661,441.661958 995.504064,412.795277 978.490378,396.447247 C969.769642,388.373845 961.571416,383.837129 950.452019,388.163473 C925.120939,398.804022 902.029627,447.973115 876.692436,458.08621 C854.814205,466.123026 834.390448,442.378442 811.748312,435.750203 C799.559449,432.548892 791.3215,435.481903 782.231034,443.908974 C758.684435,466.342544 736.509809,520.941671 713.290161,544.174044 C701.189911,556.192682 689.276053,558.491528 673.811566,549.62542 C661.31714,542.210573 649.617176,529.402279 639.503077,517.947682 C612.103343,486.882767 574.351172,438.713703 534.502846,451.171377 C505.615026,460.918608 479.391705,500.075219 450.650554,501.572213 C419.306015,502.267355 389.914017,456.82093 355.880535,426.030413 C323.329027,396.889333 294.31287,385.264 266.448682,381.849268 C261.410768,381.254013 203.610732,381.001972 128.875218,380.875466 C68.4851992,380.773242 -2.96274737,380.752985 -66.5660676,380.699844 M2027.686,384.66947 C1264.87826,384.66947 1334.91304,391.175754 1247.67818,374.32771 C1197.66992,364.440232 1177.57006,361.315142 1153.08233,353.266131 C1117.85715,341.412132 1098.24314,324.795802 1072.59733,320.999962 C1053.68916,318.52733 1042.03197,324.524453 1027.13889,336.161982 C1014.05167,346.668381 1004.38064,356.836355 992.069548,366.848837 C964.822595,388.727514 950.238126,387.693947 920.748348,366.583586 C892.783325,346.653136 879.824445,333.71679 852.66916,339.826721 C837.947189,343.241453 824.383296,350.30568 809.701048,352.83624 C795.782704,355.077158 784.767198,353.061857 768.315746,339.848063 C761.816445,334.628401 756.19105,329.091657 750.412875,323.411616 C719.520568,292.587562 702.283822,271.529031 669.108968,283.114729 C657.332613,287.373997 645.097915,295.298005 634.895204,302.523822 C610.065245,319.655411 571.530836,351.159363 530.087477,343.265844 C500.777981,337.360187 473.677697,313.396085 444.441536,312.426545 C412.745602,311.963117 383.698889,340.095021 350.67376,358.467499 C322.739292,373.772816 294.847603,382.864541 261.865254,385.257902 C252.010883,385.934751 260.578838,385.852431 122.134859,385.867675 L-2.95971916,385.867675 M2027.686,384.855451 C1888.88452,384.760936 1616.87333,385.288391 1439.32659,387.215275 C1374.79192,387.910417 1341.51012,392.42579 1304.83658,381.376693 C1280.81942,373.922211 1257.59977,360.437068 1234.47179,347.037294 C1203.73838,329.372153 1188.53973,321.987795 1169.33517,307.240421 C1133.28803,278.925584 1121.4964,251.930908 1098.42647,222.362987 C1092.70941,215.057899 1086.03594,207.399143 1078.46106,202.176432 C1073.61179,198.990365 1069.1292,197.057383 1063.34797,197.289097 C1049.81769,198.618404 1041.18251,213.673713 1034.60376,226.460665 C1009.41019,276.483441 987.443341,364.452427 962.980057,378.937599 C932.093861,394.678904 903.536047,272.093071 872.58874,252.208355 C842.677287,234.765782 815.085048,318.115733 785.320265,288.233778 C758.216926,259.467709 732.424447,144.055863 705.01249,96.88073 C662.215492,24.793297 628.625074,177.718414 576.361769,243.84531 C562.16842,261.571428 544.840005,275.78525 525.14043,264.230041 C500.368528,248.839356 477.19777,198.03607 452.490036,179.85567 C441.703702,172.178621 433.288527,172.388993 423.290542,179.80384 C377.688486,215.079241 345.952829,370.031855 256.209303,388.105545 C252.239525,388.869474 196.325645,389.252159 124.486397,389.460665 C50.6756207,389.674893 -39.946616,389.705251 -108.313996,389.776324 M2027.686,385.992679 C1249.60933,385.992679 1334.20719,388.367747 1235.18986,380.663258 C1198.74855,377.840006 1170.22435,376.263742 1138.73009,371.345918 C1113.14539,367.297021 1088.31849,360.467557 1063.24408,360.64744 C1039.33692,360.909643 1024.22077,367.525686 1000.33805,375.678359 C981.417661,382.135861 966.301514,386.422569 947.326121,384.559711 C926.483745,382.285256 908.669487,374.8948 889.474089,370.717851 C852.488879,362.330415 831.881785,373.300242 797.735244,373.5472 C762.06395,373.291095 738.994027,355.095452 704.844431,347.204981 C661.809095,337.665074 627.576997,358.016267 574.775903,366.672003 C498.40071,379.102238 475.031336,349.930669 411.767804,359.418746 C370.507782,365.885395 341.280788,381.187663 267.068972,385.206071 C247.910242,386.230491 245.548249,386.010972 122.134859,385.998777 L-13.5709685,385.998777 M2027.686,386.538426 C1935.37881,386.538426 1547.72467,386.550622 1455.17914,386.882948 C1339.9762,386.882948 1327.24344,389.633027 1245.3223,378.858328 C1203.17309,373.312437 1170.58797,370.123322 1140.73457,362.181021 C1111.53202,354.555802 1085.77927,341.52494 1057.97925,343.692686 C1038.71663,345.445785 1024.22077,354.604584 1005.30954,365.92503 C964.388697,390.422684 951.622321,390.599518 912.92902,371.9313 C885.410116,358.656529 872.487904,351.924629 844.15315,357.132095 C825.394706,360.607805 809.163259,366.693345 790.857046,365.391479 C758.498043,362.562129 731.021918,330.579505 700.227391,319.719437 C643.542605,299.78289 590.322892,374.285026 510.384847,356.821111 C485.163769,351.314855 461.574391,339.311462 435.791079,338.055329 C381.651624,336.262594 349.286509,383.358457 241.441497,386.93173 C235.039976,387.12076 81.5360043,387.078076 -7.84084736,387.078076 M2027.686,387.038441 C1810.91123,387.038441 1670.43832,387.090271 1464.85934,387.818951 C1338.41172,388.270183 1325.86841,392.358715 1245.4048,373.105114 C1201.91112,362.894456 1176.70532,358.129075 1150.08477,347.022049 C1115.81906,332.546024 1092.7308,309.743541 1065.08967,308.850223 C1047.83765,308.664242 1036.11324,317.85353 1023.45075,330.183152 C1005.23927,348.134886 989.43866,369.159879 972.027744,379.638838 C961.397246,385.834138 952.792623,386.678674 941.624336,381.94988 C931.996081,377.730247 922.58172,370.095882 914.346827,362.949335 C883.830361,336.469917 871.549829,324.045781 841.910326,334.116191 C825.416096,339.841965 812.179155,348.189766 796.354105,349.235527 C780.642112,349.915425 769.96578,341.531038 758.626379,330.356937 C738.373737,310.149041 717.97137,278.651186 697.06177,265.422148 C654.854506,239.476282 618.740147,303.990328 565.037646,329.713626 C547.073662,338.076671 530.228036,341.107246 511.573482,335.158904 C480.849235,324.997028 452.868933,295.566306 422.062184,299.542029 C371.384745,306.962974 337.91044,382.78527 235.519708,388.379943 C230.095984,388.65739 101.15755,388.614705 55.4882705,388.626901 L-78.4338394,388.626901 M2027.686,388.123838 C1283.32503,388.123838 1346.12105,379.620545 1241.94584,399.663803 C1206.08509,406.435338 1174.81083,411.167181 1147.21248,420.978438 C1114.35236,432.454377 1088.51405,452.61959 1059.65678,450.494529 C1031.85371,447.942626 1012.82942,422.170546 985.334964,401.90777 C957.149936,381.452915 942.198793,386.69087 911.718995,408.081727 C880.728908,429.926866 869.270337,438.655775 837.491901,429.10672 C819.631809,423.606563 805.936525,417.021008 789.729523,417.911277 C769.974947,419.454004 754.116285,435.253238 738.337069,450.537213 C706.598356,481.73018 688.625206,500.343519 651.90889,484.300376 C612.552519,467.101712 563.959012,412.67942 505.886976,430.018332 C474.374378,439.741172 448.21217,462.85159 415.853166,457.022155 C386.015048,451.323821 359.311995,427.19508 324.535996,409.816533 C270.310984,383.157232 231.550459,385.617668 192.132976,385.5323 C170.554195,385.501811 21.8530506,385.498762 -28.6441067,385.453029" id="Stroke-4" stroke="#DB3552" stroke-width="0.5" stroke-linecap="round" stroke-linejoin="round"></path>
            <g id="Group-2" transform="translate(572.000000, 347.000000)">
                <rect id="BG" stroke="#FFFFFF" stroke-width="0.5" fill="#303C54" x="0.25" y="0.25" width="302.5" height="47.5"></rect>
                <rect id="BG-Copy" stroke="#FFFFFF" stroke-width="0.5" fill="#303C54" x="326.25" y="0.25" width="302.5" height="47.5"></rect>
                <g id="Icons/Functional-Icon/Chevron/Small/Down" transform="translate(274.000000, 24.000000) rotate(-360.000000) translate(-274.000000, -24.000000) translate(265.000000, 15.000000)" fill="#E0E0E0">
                    <polygon id="ðŸŽ¨Icon---Chevron-Down" transform="translate(9.000000, 9.000000) rotate(-270.000000) translate(-9.000000, -9.000000) " points="13.6512023 8.92791101 5.32423541 0 4.35148499 1.04958017 11.7069762 8.93563049 4.34879769 16.958975 5.32986329 18"></polygon>
                </g>
                <text id="âœï¸-Label" font-family="Helvetica" font-size="16" font-weight="normal" line-spacing="24" fill="#FFFFFF">
                    <tspan x="25" y="26">Select a topic</tspan>
                </text>
                <g id="Icons/Functional-Icon/Chevron/Small/Down" transform="translate(600.000000, 24.000000) rotate(-360.000000) translate(-600.000000, -24.000000) translate(591.000000, 15.000000)" fill="#E0E0E0">
                    <polygon id="ðŸŽ¨Icon---Chevron-Down" transform="translate(9.000000, 9.000000) rotate(-270.000000) translate(-9.000000, -9.000000) " points="13.6512023 8.92791101 5.32423541 0 4.35148499 1.04958017 11.7069762 8.93563049 4.34879769 16.958975 5.32986329 18"></polygon>
                </g>
                <text id="âœï¸-Label" font-family="Helvetica" font-size="16" font-weight="normal" line-spacing="24" fill="#FFFFFF">
                    <tspan x="351" y="26">Select countries</tspan>
                </text>
                <rect id="ðŸŽ¨-BG" fill="#FFFFFF" x="648" y="0" width="66" height="48"></rect>
                <text id="âœï¸-Label" font-family="Helvetica" font-size="16" font-weight="normal" line-spacing="24" fill="#16253F">
                    <tspan x="669.328125" y="27">Go</tspan>
                </text>
            </g>
            <text id="âœï¸-Title-Copy" font-family="Helvetica" font-size="46" font-weight="normal" line-spacing="58" fill="#FFFFFF">
                <tspan x="521.687988" y="307">Corporate Power Purchase Agreements</tspan>
            </text>
            <g id="01-Header/Desktop/01-Default/Dark-BG" transform="translate(161.000000, 58.000000)" fill="#FFFFFF">
                <g id="Header/Desktop/01-Default/Top-level-Navigation/Dark-BG/Link-Group" transform="translate(983.000000, -0.000000)" font-family="Helvetica" font-size="20" font-weight="normal" line-spacing="24">
                    <g id="Header/Desktop/01-Default/Top-level-Navigation/Dark-BG/Top-Level-Link/Default" transform="translate(138.635593, 0.000000)">
                        <text id="âœï¸-Label">
                            <tspan x="0" y="19">Home</tspan>
                        </text>
                    </g>
                    <g id="Header/Desktop/01-Default/Top-level-Navigation/Dark-BG/Top-Level-Link/Default" transform="translate(236.618644, 0.000000)">
                        <text id="âœï¸-Label">
                            <tspan x="0" y="19">Country Insight</tspan>
                        </text>
                    </g>
                    <g id="Header/Desktop/01-Default/Top-level-Navigation/Dark-BG/Top-Level-Link/Default" transform="translate(419.033898, 0.000000)">
                        <text id="âœï¸-Label">
                            <tspan x="0" y="19">Glossary</tspan>
                        </text>
                    </g>
                    <g id="Header/Desktop/01-Default/Top-level-Navigation/Dark-BG/Top-Level-Link/Default" transform="translate(543.076271, 0.000000)">
                        <text id="âœï¸-Label">
                            <tspan x="0" y="19">Contact</tspan>
                        </text>
                    </g>
                </g>
                <g id="Brand-Elements/Logo/Large/White" transform="translate(0.000000, 6.000000)">
                    <path d="M41.5958922,7.10542736e-14 C43.4044092,7.10542736e-14 44.6085802,0.303951368 45.6650555,0.911854103 C46.8692265,1.67173252 47.9257019,2.73404255 48.5285409,3.95136778 C49.1298728,5.16717325 49.4327994,6.53343465 49.4327994,8.35866261 L49.4327994,25.0759878 C49.4327994,25.8358663 48.9806701,26.1398176 48.376324,26.1398176 C47.7749921,26.1398176 47.3228628,25.8358663 47.1721531,25.0759878 C46.5693141,19.9088146 44.760797,15.9574468 41.5958922,12.612462 C38.2802776,9.11854103 33.1561459,6.83890578 27.1277558,6.83890578 C15.0709754,6.83890578 6.78193894,15.9574468 6.78193894,27.3556231 C6.78193894,33.1291793 8.8918755,38.2978723 12.5089096,41.943769 C15.6738144,45.1367781 19.7429778,47.112462 24.7163997,47.7203647 C25.771368,47.8723404 26.0727875,48.1762918 26.0727875,48.9361702 C26.0727875,49.2401216 25.9220777,49.5425532 25.771368,49.6960486 C25.6206582,49.8465046 25.168529,50 24.7163997,50 L7.83690722,50 C6.02839017,50 4.82271214,49.6960486 3.76774386,49.0866261 C2.56206582,48.3267477 1.50709754,47.2629179 0.904258526,46.0471125 C0.150709754,44.6808511 1.3500312e-13,43.3130699 1.3500312e-13,41.6413374 L1.3500312e-13,8.35866261 C1.3500312e-13,6.53343465 0.150709754,5.16717325 0.904258526,3.95136778 C1.50709754,2.73404255 2.56206582,1.67173252 3.76774386,0.911854103 C4.82271214,0.303951368 6.02839017,7.10542736e-14 7.83690722,7.10542736e-14 L41.5958922,7.10542736e-14 Z M81.5336757,30.5462006 C82.5886439,30.5462006 83.4929025,30.6981763 84.0957415,31.306079 C84.6985805,31.9139818 85,32.6738602 85,33.73769 C85,34.9534954 84.397161,36.1693009 83.3421927,36.625228 C83.794322,37.5370821 84.5478707,38.7528875 84.8492902,38.9048632 C84.8492902,39.0568389 85,39.36231 85,39.512766 C85,40.2726444 84.397161,40.5765957 83.9450317,40.5765957 C83.3421927,40.5765957 83.1914829,40.4246201 82.8900634,39.968693 L82.8900634,39.968693 L81.2322561,37.0826748 L79.1223196,37.0826748 L79.1223196,39.512766 C79.1223196,40.1221884 78.6701903,40.5765957 78.0673513,40.5765957 C77.4645123,40.5765957 77.012383,40.1221884 77.012383,39.512766 L77.012383,39.512766 L77.012383,31.9139818 C77.012383,31.0036474 77.4645123,30.5462006 78.3687708,30.5462006 L78.3687708,30.5462006 Z M20.7979461,30.5465046 C22.1543339,30.5465046 23.0585924,30.8504559 23.8121412,31.6103343 C24.7163997,32.3702128 25.168529,33.7379939 25.168529,35.7136778 C25.168529,38.9051672 23.5107217,40.5768997 20.9486558,40.5768997 L20.9486558,40.5768997 L18.0851705,40.5768997 C17.3316217,40.5768997 16.8794925,40.2729483 16.8794925,39.2091185 L16.8794925,39.2091185 L16.8794925,31.9142857 C16.8794925,30.8504559 17.3316217,30.5465046 18.0851705,30.5465046 L18.0851705,30.5465046 Z M37.8275455,30.5465046 C38.2796748,30.5465046 38.731804,30.6984802 39.0332235,31.0024316 C39.334643,31.1544073 39.4853528,31.4583587 39.6360625,32.0662614 C39.937482,32.9781155 41.7459991,38.4492401 41.8967089,38.7531915 C42.0474186,39.0571429 42.0474186,39.3610942 42.3488381,39.6650456 C42.3488381,40.1209726 41.8967089,40.5768997 41.2938698,40.5768997 C40.6910308,40.5768997 40.3896113,40.2729483 40.2389016,39.8170213 C39.937482,39.2091185 39.7867723,38.7531915 39.6360625,38.1452888 L39.6360625,38.1452888 L36.0190284,38.1452888 C35.7176089,38.9051672 35.5668992,39.5130699 35.4161894,39.8170213 C35.2654797,40.424924 34.9640602,40.5768997 34.5119309,40.5768997 C33.9090919,40.5768997 33.4569626,40.2729483 33.4569626,39.6650456 C33.4569626,39.3610942 33.4569626,39.0571429 33.6076724,38.7531915 C33.6076724,38.6012158 35.7176089,32.8261398 36.0190284,32.0662614 C36.1697382,31.6103343 36.3204479,31.306383 36.6218675,31.0024316 C36.923287,30.6984802 37.3754162,30.5465046 37.8275455,30.5465046 Z M57.4198135,30.5455927 C58.0226526,30.5455927 58.4747818,31.0030395 58.4747818,31.6094225 L58.4747818,39.3617021 C58.4747818,39.9680851 58.0226526,40.4240122 57.4198135,40.4240122 C56.8169745,40.4240122 56.3663524,39.9680851 56.3663524,39.3617021 L56.3663524,31.6094225 C56.3663524,31.0030395 56.8169745,30.5455927 57.4198135,30.5455927 Z M27.2784655,30.5458967 C27.8813045,30.5458967 28.3334338,31.0033435 28.3334338,31.6097264 L28.3334338,38.6021277 L31.6490484,38.6021277 C32.1011777,38.6021277 32.4025972,38.7525836 32.5533069,38.9045593 C32.7040167,39.0580547 32.7040167,39.2085106 32.7040167,39.512462 C32.7040167,39.8179331 32.7040167,39.9683891 32.5533069,40.1218845 C32.4025972,40.2723404 32.1011777,40.4243161 31.6490484,40.4243161 L27.4291753,40.4243161 C26.6756265,40.4243161 26.2234972,40.1218845 26.2234972,39.0580547 L26.2234972,31.6097264 C26.2234972,31.0033435 26.6756265,30.5458967 27.2784655,30.5458967 Z M74.9024465,30.393921 C75.3545757,30.393921 75.6559952,30.5458967 75.806705,30.6993921 C75.9574147,30.849848 75.9574147,31.0033435 75.9574147,31.3057751 C75.9574147,31.6097264 75.9574147,31.7632219 75.806705,31.9136778 C75.6559952,32.0656535 75.3545757,32.2191489 74.9024465,32.2191489 L71.1347026,32.2191489 L71.1347026,34.3452888 L74.2996074,34.3452888 C74.7517367,34.3452888 75.0531562,34.4987842 75.203866,34.6492401 C75.3330458,34.9097699 75.3515,35.1714162 75.3541363,35.3356031 L75.3545757,35.4091185 C75.3545757,35.7130699 75.3545757,35.8650456 75.203866,36.018541 C75.0531562,36.168997 74.7517367,36.3224924 74.2996074,36.3224924 L71.1347026,36.3224924 L71.1347026,38.4486322 L74.9024465,38.4486322 C75.3545757,38.4486322 75.6559952,38.6021277 75.806705,38.7525836 C75.9574147,38.9045593 75.9574147,39.0580547 75.9574147,39.3620061 C75.9574147,39.6644377 75.9574147,39.8179331 75.806705,39.9683891 C75.6559952,40.1218845 75.3545757,40.2723404 74.9024465,40.2723404 L70.0797343,40.2723404 L70.0797343,40.4243161 C69.3261856,40.4243161 68.8740563,40.1218845 68.8740563,39.0580547 L68.8740563,31.7632219 C68.8740563,30.6993921 69.3261856,30.393921 70.2304441,30.393921 L74.9024465,30.393921 Z M51.9945638,30.3951368 C53.0495321,30.3951368 53.9537906,30.6990881 54.5566296,31.1550152 C55.1594687,31.7629179 55.4608882,32.5227964 55.4608882,33.5851064 C55.4608882,35.4088146 54.4059199,36.7781155 52.2959833,36.7781155 L49.7339175,36.7781155 L49.7339175,39.2082067 C49.7339175,39.8176292 49.2817882,40.2735562 48.6789492,40.2735562 C48.0761102,40.2735562 47.6239809,39.8176292 47.6239809,39.2082067 L47.6239809,31.7629179 L47.4732712,31.7629179 C47.4732712,30.8495441 47.9254004,30.3951368 48.829659,30.3951368 L51.9945638,30.3951368 Z M64.503172,30.3951368 C65.5581403,30.3951368 66.4623988,30.6990881 67.0652378,31.1550152 C67.6695839,31.7629179 67.9694963,32.5227964 67.9694963,33.5851064 C67.9694963,35.4088146 66.9160352,36.7781155 64.8045915,36.7781155 L62.2425257,36.7781155 L62.2425257,39.2082067 C62.2425257,39.8176292 61.7903964,40.2735562 61.1875574,40.2735562 C60.5847184,40.2735562 60.1340962,39.8176292 60.1340962,39.2082067 L60.1340962,31.7629179 L59.9818794,31.7629179 C59.9818794,30.8495441 60.4340086,30.3951368 61.3382672,30.3951368 L64.503172,30.3951368 Z M20.1951071,32.3702128 L18.8387193,32.3702128 L18.8387193,38.6012158 L20.4965266,38.6012158 C21.2500754,38.6012158 21.8529144,38.4492401 22.1543339,37.9933131 C22.6064631,37.537386 22.9078827,36.6255319 22.7571729,35.5617021 C22.7571729,34.3458967 22.4557534,33.4340426 22.0036241,32.9781155 C21.5514949,32.5221884 20.9486558,32.3702128 20.1951071,32.3702128 L20.1951071,32.3702128 Z M37.8275455,32.8261398 C37.526126,33.8899696 37.0739967,35.2577508 36.6218675,36.4735562 L36.6218675,36.4735562 L39.0332235,36.4735562 C38.5810943,34.9537994 38.128965,33.7379939 37.8275455,32.8261398 Z M51.5680552,32.3696064 L49.5832077,32.3693009 L49.5832077,35.2583587 L51.6931443,35.2583587 C52.2959833,35.2583587 52.5974028,35.1048632 52.7481126,34.8024316 C53.0495321,34.4984802 53.2002418,34.1945289 53.2002418,33.7386018 C53.2002418,33.2826748 53.0495321,32.825228 52.7481126,32.674772 C52.476835,32.399848 52.0834826,32.3723556 51.5680552,32.3696064 Z M64.0777621,32.3696064 L62.0918159,32.3693009 L62.0918159,35.2583587 L64.2017525,35.2583587 C64.8045915,35.2583587 65.106011,35.1048632 65.2567208,34.8024316 C65.5581403,34.4984802 65.70885,34.1945289 65.70885,33.7386018 C65.70885,33.2826748 65.5581403,32.825228 65.2567208,32.674772 C64.9854432,32.399848 64.5920908,32.3723556 64.0777621,32.3696064 Z M80.9308366,32.3699088 L79.2730293,32.3699088 L79.2730293,35.2574468 L81.2322561,35.2574468 C81.8350952,35.2574468 82.1365147,35.1054711 82.4379342,34.8030395 C82.5886439,34.4975684 82.7393537,34.193617 82.7393537,33.73769 C82.7393537,33.2832827 82.5886439,32.9778116 82.2872244,32.6738602 C81.9858049,32.5234043 81.5336757,32.3699088 80.9308366,32.3699088 L80.9308366,32.3699088 Z" id="ðŸŽ¨-DLA-PIPER-Logo"></path>
                </g>
            </g>
            <g id="Group" transform="translate(1278.000000, 112.000000)" fill="#FFFFFF">
                <g id="Header/Desktop/01-Default/Top-level-Navigation/Dark-BG/Top-Level-Link/Active-Copy-2">
                    <rect id="ðŸŽ¨Parent-Nav-Marker" x="0" y="0" width="56" height="2"></rect>
                </g>
            </g>
            <g id="Group-3" transform="translate(-2.000000, 0.000000)" fill="#303C54">
                <path d="M1922,100 C1862.02339,100 1831.97661,40 1772,40 L1772,40 L0,40 L0,-2.27373675e-13 L1922,-2.27373675e-13 Z" id="ðŸŽ¨-Global-Bar-BG"></path>
            </g>
        </g>
    </g>
</svg>
